# xmcd
#
# Track frame offsets: 
#        150
#        13567
#        27789
#        40585
#        58631
#        72388
#        89940
#        105750
#        121211
#        139700
#        155043
#        174130
#        190741
#        206314
#        220481
#        233503
#        249350
#        262999
#        279085
#        297150
#        312220
#        328165
#
# Disc length: 4576 seconds
#
# Revision: 0
# Processed by: cddbd v1.5.2PL0 Copyright (c) Steve Scherf et al.
# Submitted via: ExactAudioCopy v1.1
#
DISCID=2a11de16
DTITLE=Various Artist - MENT - De Vlaamse Top 10 2019 - CD1
DYEAR=2019
DGENRE=Chanson
TTITLE0=Willy Sommers - Eeuwige Dromers
TTITLE1=Wim Soutaer - Hou Me Vast
TTITLE2=Bart Kaëll - Onwaarschijnlijk Mooi
TTITLE3=Isabelle A - 2 Seconden
TTITLE4=De Geest - Mijn Hart
TTITLE5=Tijs Vanneste - Kzen Hie Nog Geweest
TTITLE6=Mama's Jasje - De Jacht Is Mooier Dan De Vangst
TTITLE7=Metejoor - Horizontaal
TTITLE8=Bart Peeters - Kies Mij
TTITLE9=Celien - Jij En Ik
TTITLE10=Lisa Del Bo - Vergeven
TTITLE11=Daalman - Vleugels
TTITLE12=Tourist LeMC - We Begrijpen Mekaar
TTITLE13=Lenny and De Wespen - Blij
TTITLE14=White Bird - Redder En Superman
TTITLE15=Eveline Cannoot - Zeg Me Hoe
TTITLE16=Danny Fabry - Zolang Muziek In Mij Klinkt
TTITLE17=Connie Neefs - Zet De Radio Wat Luider
TTITLE18=Ida De Nijs - Het Leven Is Zo Mooi, Leef Het Niet Alleen
TTITLE19=Gene Thomas - Onder Mijn Huid
TTITLE20=Dana Winner - Vogelvrij
TTITLE21=Marcel De Groot and Bart Herman - Heb Jij Dat Ook
EXTD=
EXTT0=
EXTT1=
EXTT2=
EXTT3=
EXTT4=
EXTT5=
EXTT6=
EXTT7=
EXTT8=
EXTT9=
EXTT10=
EXTT11=
EXTT12=
EXTT13=
EXTT14=
EXTT15=
EXTT16=
EXTT17=
EXTT18=
EXTT19=
EXTT20=
EXTT21=
PLAYORDER=
